<svg width="960" height="1200" viewBox="0 0 960 1200" fill="none" xmlns="http://www.w3.org/2000/svg">
  <rect width="960" height="1200" rx="64" fill="#09090B"/>
  <rect x="24" y="24" width="912" height="1152" rx="44" fill="url(#paint0_radial)" stroke="rgba(255,255,255,0.12)" stroke-width="2"/>
  <circle cx="484" cy="364" r="154" fill="url(#paint1_radial)"/>
  <path d="M308 1034C334.667 812.667 395.333 702 490 702C584.667 702 644 812.667 668 1034" stroke="#F5F5F5" stroke-opacity="0.7" stroke-width="52" stroke-linecap="round"/>
  <path d="M346 520C346 436.053 409.053 368 493 368C576.947 368 640 436.053 640 520C640 603.947 576.947 672 493 672C409.053 672 346 603.947 346 520Z" stroke="#F4F4F5" stroke-opacity="0.75" stroke-width="48"/>
  <path d="M402 522H585" stroke="#FB7185" stroke-opacity="0.5" stroke-width="18" stroke-linecap="round"/>
  <path d="M388 508C430 468 468 448 500 448C532 448 567.333 468 606 508" stroke="#F4F4F5" stroke-opacity="0.42" stroke-width="18" stroke-linecap="round"/>
  <path d="M438 612L396 690" stroke="#F4F4F5" stroke-opacity="0.7" stroke-width="24" stroke-linecap="round"/>
  <path d="M548 612L590 690" stroke="#F4F4F5" stroke-opacity="0.7" stroke-width="24" stroke-linecap="round"/>
  <text x="480" y="132" fill="#F5F5F5" font-family="Avenir Next, Segoe UI, sans-serif" font-size="42" font-weight="600" text-anchor="middle" letter-spacing="8">
    FOUNDER PLACEHOLDER
  </text>
  <text x="480" y="1086" fill="#FCA5A5" font-family="Avenir Next, Segoe UI, sans-serif" font-size="28" font-weight="500" text-anchor="middle" letter-spacing="4">
    Replace with monochrome portrait later
  </text>
  <defs>
    <radialGradient id="paint0_radial" cx="0" cy="0" r="1" gradientUnits="userSpaceOnUse" gradientTransform="translate(480 540) rotate(90) scale(612 489.6)">
      <stop stop-color="#141418"/>
      <stop offset="0.62" stop-color="#0B0B0E"/>
      <stop offset="1" stop-color="#070709"/>
    </radialGradient>
    <radialGradient id="paint1_radial" cx="0" cy="0" r="1" gradientUnits="userSpaceOnUse" gradientTransform="translate(484 364) rotate(90) scale(154)">
      <stop stop-color="#8B1E2D" stop-opacity="0.42"/>
      <stop offset="1" stop-color="#8B1E2D" stop-opacity="0"/>
    </radialGradient>
  </defs>
</svg>
